<?xml version="1.0" encoding="utf-8"?>
<!-- Generator: Adobe Illustrator 25.4.1, SVG Export Plug-In . SVG Version: 6.00 Build 0)  -->
<svg version="1.1" id="Layer_1" xmlns="http://www.w3.org/2000/svg" xmlns:xlink="http://www.w3.org/1999/xlink" x="0px" y="0px"
	 viewBox="0 0 501.2 367.6" style="enable-background:new 0 0 501.2 367.6;" xml:space="preserve">
<style type="text/css">
	.st0{fill:#748260;}
</style>
<path class="st0" d="M0,332.1V28.9C0,17.2,1.9,9.5,5.7,5.7S17.2,0,28.9,0h9.3c11.7,0,19.4,1.9,23.2,5.7S67,17.2,67,28.9v303.2
	c0,11.7-1.9,19.4-5.7,23.2S49.8,361,38.2,361h-9.3c-11.7,0-19.4-1.9-23.2-5.7C1.9,351.5,0,343.8,0,332.1z M104.7,176.9l41.8-51.6
	c7.2-8.9,13.9-14.9,20.1-17.8c6.2-2.9,15.1-4.4,26.8-4.4h25.8c11.7,0,18.1,1.5,19.3,4.4s-1.8,8.9-9,17.8l-67.6,82.5
	c-6.5,6.5-9.8,12.2-9.8,17c0,3.8,3.1,9.3,9.3,16.5l78.9,96.9c7.2,8.9,10.1,14.9,8.8,18c-1.4,3.1-7.9,4.6-19.6,4.8h-25.8
	c-11.7,0-20.6-1.6-26.8-4.6c-6.2-3.1-12.9-9.1-20.1-18l-52.1-65c-13.4-16.5-20.1-33.3-20.1-50.5C84.6,208.7,91.3,193.4,104.7,176.9z
	"/>
<path class="st0" d="M283.6,283.1V28.9c0-11.7,1.9-19.4,5.7-23.2S300.8,0,312.5,0h9.3c11.7,0,19.4,1.9,23.2,5.7s5.7,11.5,5.7,23.2
	v239.2c0,13.1,1.7,22.1,5.2,27.1s9.3,7.5,17.5,7.5h2.6c7.2,0,11.9,1.5,14.2,4.4c2.2,2.9,3.4,9.4,3.4,19.3v9.8
	c0,10.3-1.2,17.4-3.6,21.1c-2.4,3.8-7,6.4-13.9,7.7c-5.1,0.6-10.3,0.9-15.5,1c-24.4,0-43.3-7-56.7-21.1
	C290.4,330.8,283.6,310.2,283.6,283.1z"/>
<path class="st0" d="M489.3,355.8c-15.7,15.5-40.9,15.3-56.3-0.4s-15.3-40.9,0.4-56.3s40.9-15.3,56.3,0.4c7.4,7.5,11.5,17.5,11.5,28
	C501.3,338.1,497,348.4,489.3,355.8z"/>
</svg>
